<?xml version="1.0" encoding="UTF-8" standalone="no"?>
<svg
   height="64"
   viewBox="0 0 128 128"
   width="64"
   version="1.1"
   id="svg267"
   sodipodi:docname="edit-clear.svg"
   inkscape:version="1.2.2 (b0a8486541, 2022-12-01)"
   xmlns:inkscape="http://www.inkscape.org/namespaces/inkscape"
   xmlns:sodipodi="http://sodipodi.sourceforge.net/DTD/sodipodi-0.dtd"
   xmlns="http://www.w3.org/2000/svg"
   xmlns:svg="http://www.w3.org/2000/svg">
  <defs
     id="defs271" />
  <sodipodi:namedview
     id="namedview269"
     pagecolor="#ffffff"
     bordercolor="#ffffff"
     borderopacity="0.25"
     inkscape:showpageshadow="2"
     inkscape:pageopacity="0.0"
     inkscape:pagecheckerboard="0"
     inkscape:deskcolor="#ffffff"
     showgrid="false"
     inkscape:zoom="11.346854"
     inkscape:cx="20.930912"
     inkscape:cy="28.686365"
     inkscape:window-width="3440"
     inkscape:window-height="1360"
     inkscape:window-x="0"
     inkscape:window-y="0"
     inkscape:window-maximized="1"
     inkscape:current-layer="svg267" />
  <linearGradient
     id="a"
     gradientUnits="userSpaceOnUse"
     x1="0"
     x2="128"
     y1="128"
     y2="0"
     gradientTransform="translate(-8.6348588,-10.617332)">
    <stop
       offset="0"
       stop-color="#ffffff"
       id="stop260" />
    <stop
       offset="1"
       stop-color="#ffffff"
       id="stop262" />
  </linearGradient>
  <path
     d="M 6.6637252,2.905694 C 2.0503722,5.569216 0.45796689,11.429357 3.1214902,16.042715 L 23.575641,51.470343 7.0952312,60.985311 c -4.613351,2.66352 -6.17951801,8.508509 -3.515995,13.12187 l 5.590806,9.683546 8.0302548,-4.636274 c 3.182028,4.61497 7.29038,10.526885 11.002687,15.481515 2.787941,3.72093 3.857273,6.618752 7.090695,8.887572 1.616725,1.13441 3.794622,1.70014 5.90823,1.62748 2.113617,-0.0726 4.282409,-0.60361 7.025804,-1.46707 a 3.8791009,3.8791009 0 0 0 0.43907,-0.14858 L 95.746011,82.232512 c 2.9438,-1.331203 5.304299,-2.305167 7.093949,-3.045982 1.78964,-0.740815 2.70318,-0.945214 4.13337,-1.931531 0.35752,-0.246609 0.85866,-0.466406 1.46226,-1.649016 0.30181,-0.59129 0.59552,-1.568881 0.40197,-2.576425 -0.19354,-1.007545 -0.81444,-1.802109 -1.28785,-2.230629 -0.94684,-0.85704 -1.46482,-0.903323 -1.88005,-1.013963 -0.41522,-0.110641 -0.72628,-0.151726 -1.05703,-0.194498 -1.32302,-0.171071 -2.91538,-0.196661 -5.327349,-0.318317 l -12.161892,-0.64118 c -2.861414,-0.144327 -6.934878,-3.55583 -9.122181,-6.769955 L 69.318253,49.064083 74.435575,46.109594 68.844779,36.426048 C 66.181257,31.81269 60.31002,30.261682 55.696669,32.925204 L 40.239726,41.849274 19.785576,6.421647 C 17.122054,1.808289 11.277056,0.24213096 6.6637052,2.905653 Z M 23.918432,75.27574 62.573908,52.957989 71.59722,66.223231 c 2.978745,4.377118 7.96037,9.794061 15.13597,10.155974 l 2.778245,0.14549 -43.601942,19.750113 c -0.03161,0.0104 -0.03607,-0.006 -0.06759,0.004 -2.381656,0.74441 -4.040708,1.09309 -4.914999,1.12315 -0.885879,0.0305 -0.867183,-0.041 -1.154964,-0.24292 -0.575553,-0.40385 -2.220147,-2.97114 -5.357802,-7.15881 C 31.033901,85.488663 27.079137,79.847424 23.91848,75.275556 Z"
     fill="#ffffff"
     id="path265"
     style="fill:#ffffff;stroke:#ffffff;stroke-opacity:1" />
  <path
     d="m 87.571753,92.783594 v 22.081366 a 5.687904,5.687904 0 1 1 -2.523581,-4.71662 V 100.708 l -17.6651,4.41627 v 14.78787 a 5.687904,5.687904 0 1 1 -2.523585,-4.71663 V 97.830764 a 1.2612974,1.2612974 0 0 1 0.956202,-1.223595 l 20.188682,-5.04717 a 1.2453893,1.2453893 0 0 1 1.081891,0.229194 1.2641979,1.2641979 0 0 1 0.485491,0.994401 z"
     id="path2"
     style="stroke-width:0.157724;fill:#ffffff;stroke:#ffffff;stroke-opacity:1" />
  <path
     d="m 126.64997,76.049839 v 22.08136 a 5.687904,5.687904 0 1 1 -2.52358,-4.716616 v -9.440342 l -17.6651,4.416272 v 14.787867 a 5.687904,5.687904 0 1 1 -2.52359,-4.716631 v -17.36474 a 1.2612974,1.2612974 0 0 1 0.95621,-1.223595 l 20.18867,-5.04717 a 1.2453893,1.2453893 0 0 1 1.0819,0.229194 1.2641979,1.2641979 0 0 1 0.48549,0.994401 z"
     id="path2-3"
     style="stroke-width:0.157724;fill:#ffffff;stroke:#ffffff;stroke-opacity:1" />
</svg>
