<?xml version="1.0" encoding="UTF-8" standalone="no"?>
<svg
   height="24"
   preserveAspectRatio="xMinYMin"
   viewBox="-1.5 -2.5 24 24"
   width="24"
   version="1.1"
   id="svg4"
   sodipodi:docname="refresh.svg"
   inkscape:version="1.2.2 (b0a8486541, 2022-12-01)"
   xmlns:inkscape="http://www.inkscape.org/namespaces/inkscape"
   xmlns:sodipodi="http://sodipodi.sourceforge.net/DTD/sodipodi-0.dtd"
   xmlns="http://www.w3.org/2000/svg"
   xmlns:svg="http://www.w3.org/2000/svg">
  <defs
     id="defs8" />
  <sodipodi:namedview
     id="namedview6"
     pagecolor="#ffffff"
     bordercolor="#000000"
     borderopacity="0.25"
     inkscape:showpageshadow="2"
     inkscape:pageopacity="0.0"
     inkscape:pagecheckerboard="0"
     inkscape:deskcolor="#d1d1d1"
     showgrid="false"
     inkscape:zoom="42.791667"
     inkscape:cx="12"
     inkscape:cy="12"
     inkscape:window-width="3440"
     inkscape:window-height="1360"
     inkscape:window-x="0"
     inkscape:window-y="0"
     inkscape:window-maximized="1"
     inkscape:current-layer="svg4" />
  <path
     d="m17.83 4.194.42-1.377a1 1 0 1 1 1.913.585l-1.17 3.825a1 1 0 0 1 -1.248.664l-3.825-1.17a1 1 0 1 1 .585-1.912l1.672.511a7.381 7.381 0 0 0 -12.992 1.264l-.26.633a1 1 0 1 1 -1.85-.758l.26-.633a9.381 9.381 0 0 1 16.495-1.632zm-15.522 10.613-.327 1.311a1 1 0 1 1 -1.94-.484l.967-3.88a1 1 0 0 1 1.265-.716l3.828.954a1 1 0 0 1 -.484 1.941l-1.786-.445a7.384 7.384 0 0 0 13.216-1.792 1 1 0 1 1 1.906.608 9.381 9.381 0 0 1 -5.38 5.831 9.386 9.386 0 0 1 -11.265-3.328z"
     id="path2"
     style="fill:#ffffff" />
</svg>
