<?xml version="1.0" encoding="UTF-8" standalone="no"?>
<svg
   viewBox="-2 -3 24 24"
   width="24"
   height="24"
   preserveAspectRatio="xMinYMin"
   class="jam jam-shuffle"
   version="1.1"
   id="svg4"
   sodipodi:docname="shuffle.svg"
   inkscape:version="1.2.2 (b0a8486541, 2022-12-01)"
   xmlns:inkscape="http://www.inkscape.org/namespaces/inkscape"
   xmlns:sodipodi="http://sodipodi.sourceforge.net/DTD/sodipodi-0.dtd"
   xmlns="http://www.w3.org/2000/svg"
   xmlns:svg="http://www.w3.org/2000/svg">
  <defs
     id="defs8" />
  <sodipodi:namedview
     id="namedview6"
     pagecolor="#ffffff"
     bordercolor="#000000"
     borderopacity="0.25"
     inkscape:showpageshadow="2"
     inkscape:pageopacity="0.0"
     inkscape:pagecheckerboard="0"
     inkscape:deskcolor="#d1d1d1"
     showgrid="false"
     inkscape:zoom="42.791667"
     inkscape:cx="12"
     inkscape:cy="12"
     inkscape:window-width="3440"
     inkscape:window-height="1360"
     inkscape:window-x="0"
     inkscape:window-y="0"
     inkscape:window-maximized="1"
     inkscape:current-layer="svg4" />
  <path
     d="M19.548 4.837L16.875 7.51a1 1 0 0 1-1.415-1.414L16.556 5H15.1a5.22 5.22 0 0 0-5.089 4.058A5.264 5.264 0 0 0 15.105 13h1.502l-1.147-1.147a1 1 0 0 1 1.415-1.414l2.828 2.828a.996.996 0 0 1 .282.562 1.006 1.006 0 0 1-.437 1.008l-2.673 2.673a1 1 0 0 1-1.415-1.414L16.556 15h-1.451a7.264 7.264 0 0 1-6.114-3.34A7.22 7.22 0 0 1 2.901 15H1a1 1 0 0 1 0-2h1.901a5.22 5.22 0 0 0 5.06-3.936A5.263 5.263 0 0 0 2.836 5H1a1 1 0 1 1 0-2h1.836a7.264 7.264 0 0 1 6.143 3.387A7.22 7.22 0 0 1 15.1 3h1.508L15.46 1.853A1 1 0 1 1 16.875.439l2.828 2.828a.996.996 0 0 1 .282.562 1.006 1.006 0 0 1-.437 1.008z"
     id="path2"
     style="fill:#ffffff" />
</svg>
