<svg fill="none" height="48" viewBox="0 0 48 48" width="48" xmlns="http://www.w3.org/2000/svg"><path d="m0 0h48v48h-48z" fill="#fff" fill-opacity=".01"/><g stroke="#fff" stroke-width="4"><path d="m24 6v36c-7 0-12.2015-9.1609-12.2015-9.1609h-5.7985c-1.10457 0-2-.8954-2-2v-13.8283c0-1.1046.89543-2 2-2h5.7985s5.2015-9.0108 12.2015-9.0108z" fill="#2f88ff" stroke-linejoin="round"/><path d="m32 15c.6232.5565 1.1881 1.1797 1.6841 1.8588 1.4546 1.9916 2.3159 4.4635 2.3159 7.1412 0 2.6545-.8465 5.1067-2.2782 7.0893-.505.6992-1.0827 1.34-1.7218 1.9107" stroke-linecap="round" stroke-linejoin="round"/><path d="m34.2358 41.1857c5.8477-3.4904 9.7641-9.8807 9.7641-17.1857 0-7.1915-3.7957-13.4965-9.4929-17.02094" stroke-linecap="round"/></g></svg>